<svg width="100%" viewBox="0 0 680 300" role="img" xmlns="http://www.w3.org/2000/svg">
<title>pengui-redn GitHub banner</title>
<desc>Banner para el repo pengui-redn, generadora de redes neuronales en Rust con Candle</desc>

<rect width="680" height="300" fill="#0d1117" rx="14"/>
<rect x="1" y="1" width="678" height="298" fill="none" stroke="#30363d" stroke-width="1.2" rx="13"/>

<circle cx="52" cy="22" r="1.1" fill="white" opacity="0.2"/>
<circle cx="130" cy="14" r="0.8" fill="white" opacity="0.18"/>
<circle cx="210" cy="38" r="1.2" fill="white" opacity="0.15"/>
<circle cx="350" cy="16" r="0.9" fill="white" opacity="0.2"/>
<circle cx="460" cy="25" r="1.1" fill="white" opacity="0.18"/>
<circle cx="570" cy="11" r="0.8" fill="white" opacity="0.15"/>
<circle cx="648" cy="32" r="1.2" fill="white" opacity="0.2"/>
<circle cx="668" cy="78" r="0.8" fill="white" opacity="0.12"/>
<circle cx="22" cy="95" r="0.9" fill="white" opacity="0.13"/>

<g opacity="0.09" stroke="#58a6ff" stroke-width="0.9" fill="none">
  <circle cx="28" cy="155" r="4.5"/><circle cx="28" cy="185" r="4.5"/><circle cx="28" cy="215" r="4.5"/>
  <circle cx="70" cy="142" r="4.5"/><circle cx="70" cy="170" r="4.5"/><circle cx="70" cy="198" r="4.5"/><circle cx="70" cy="226" r="4.5"/>
  <circle cx="112" cy="155" r="4.5"/><circle cx="112" cy="185" r="4.5"/><circle cx="112" cy="215" r="4.5"/>
  <line x1="33" y1="155" x2="65" y2="144"/><line x1="33" y1="155" x2="65" y2="170"/>
  <line x1="33" y1="185" x2="65" y2="170"/><line x1="33" y1="185" x2="65" y2="198"/>
  <line x1="33" y1="215" x2="65" y2="198"/><line x1="33" y1="215" x2="65" y2="226"/>
  <line x1="75" y1="144" x2="107" y2="155"/><line x1="75" y1="170" x2="107" y2="155"/>
  <line x1="75" y1="170" x2="107" y2="185"/><line x1="75" y1="198" x2="107" y2="185"/>
  <line x1="75" y1="198" x2="107" y2="215"/><line x1="75" y1="226" x2="107" y2="215"/>
</g>

<g opacity="0.07" stroke="#58a6ff" stroke-width="0.9" fill="none">
  <circle cx="560" cy="230" r="4.5"/><circle cx="560" cy="258" r="4.5"/>
  <circle cx="600" cy="240" r="4.5"/><circle cx="600" cy="265" r="4.5"/>
  <circle cx="640" cy="250" r="4.5"/>
  <line x1="565" y1="230" x2="595" y2="242"/><line x1="565" y1="258" x2="595" y2="242"/>
  <line x1="565" y1="258" x2="595" y2="263"/><line x1="605" y1="242" x2="635" y2="251"/>
  <line x1="605" y1="263" x2="635" y2="251"/>
</g>

<ellipse cx="200" cy="278" rx="52" ry="7" fill="#000000" opacity="0.35"/>

<polygon points="158,265 178,262 184,272 180,278 158,278 152,272" fill="#cc8800"/>
<polygon points="160,264 176,262 181,270 177,276 161,276 155,270" fill="#e8a010"/>
<polygon points="152,272 148,268 156,265 158,272" fill="#cc8800"/>
<polygon points="180,272 184,268 192,270 184,278" fill="#cc8800"/>
<polygon points="212,265 232,262 238,272 234,278 212,278 206,272" fill="#cc8800"/>
<polygon points="214,264 230,262 235,270 231,276 215,276 209,270" fill="#e8a010"/>
<polygon points="206,272 202,268 210,265 212,272" fill="#cc8800"/>
<polygon points="234,272 238,268 246,270 238,278" fill="#cc8800"/>

<polygon points="155,170 162,148 178,135 200,130 222,135 238,148 245,170 242,210 235,240 230,262 170,262 165,240 158,210" fill="#1515cc"/>
<polygon points="162,148 170,140 178,137 172,158 165,175 160,170" fill="#2020e0"/>
<ellipse cx="200" cy="205" rx="30" ry="42" fill="white"/>
<ellipse cx="200" cy="202" rx="24" ry="36" fill="#eef1ff"/>

<polygon points="155,170 138,160 128,175 132,198 142,215 155,210 158,190" fill="#1010b8"/>
<polygon points="155,170 140,162 132,176 136,196 145,212 155,208" fill="#1818cc"/>
<polygon points="128,175 122,185 126,198 132,198" fill="#0e0ea8"/>
<polygon points="245,170 262,160 272,175 268,198 258,215 245,210 242,190" fill="#1010b8"/>
<polygon points="245,170 260,162 268,176 264,196 255,212 245,208" fill="#1818cc"/>
<polygon points="272,175 278,185 274,198 268,198" fill="#0e0ea8"/>

<polygon points="175,135 178,120 200,115 222,120 225,135 215,130 200,128 185,130" fill="#1a1ad8"/>

<polygon points="172,118 178,95 188,78 200,72 212,78 222,95 228,118 222,130 200,135 178,130" fill="#1818d0"/>
<polygon points="178,95 190,85 200,82 195,100 182,108" fill="#2020e0"/>
<polygon points="200,82 212,85 222,95 218,108 205,100" fill="#1c1cda"/>
<polygon points="178,95 172,110 178,122 188,118 182,108" fill="#1414c0"/>
<polygon points="222,95 228,110 222,122 212,118 218,108" fill="#1414c0"/>
<polygon points="188,118 212,118 218,108 205,100 195,100 182,108" fill="#1a1ad5"/>

<circle cx="186" cy="102" r="16" fill="white"/>
<path d="M172,96 Q186,89 200,96" fill="#1818d0" stroke="none"/>
<circle cx="186" cy="104" r="10" fill="#0a0aaa"/>
<circle cx="186" cy="104" r="6.5" fill="#060630"/>
<circle cx="182" cy="99" r="3.5" fill="white"/>
<circle cx="189" cy="108" r="1.5" fill="white" opacity="0.6"/>

<circle cx="215" cy="100" r="17" fill="white"/>
<path d="M200,93 Q215,86 230,93" fill="#1818d0" stroke="none"/>
<circle cx="215" cy="102" r="11" fill="#0a0aaa"/>
<circle cx="215" cy="102" r="7" fill="#060630"/>
<circle cx="210" cy="96" r="4" fill="white"/>
<circle cx="219" cy="107" r="1.8" fill="white" opacity="0.6"/>

<ellipse cx="174" cy="114" rx="8" ry="5" fill="#ff6688" opacity="0.35"/>
<ellipse cx="226" cy="112" rx="8" ry="5" fill="#ff6688" opacity="0.35"/>

<polygon points="188,116 200,112 212,116 208,128 200,132 192,128" fill="#cc8800"/>
<polygon points="190,116 200,113 210,116 207,125 200,129 193,125" fill="#e8a010"/>
<line x1="189" y1="122" x2="211" y2="122" stroke="#b07000" stroke-width="0.8"/>

<text x="310" y="105" font-family="'SF Mono','Fira Code','Courier New',monospace" font-size="44" font-weight="700" fill="#ffffff" letter-spacing="-1.5">pengui-redn</text>
<text x="312" y="132" font-family="'SF Mono','Fira Code','Courier New',monospace" font-size="11.5" fill="#58a6ff" letter-spacing="3.5">NEURAL NETWORK GENERATOR</text>
<line x1="312" y1="146" x2="655" y2="146" stroke="#21262d" stroke-width="1"/>
<text x="312" y="170" font-family="-apple-system,BlinkMacSystemFont,'Segoe UI',sans-serif" font-size="13.5" fill="#8b949e">Generadora de arquitecturas de redes</text>
<text x="312" y="189" font-family="-apple-system,BlinkMacSystemFont,'Segoe UI',sans-serif" font-size="13.5" fill="#8b949e">neuronales, escrita en Rust con Candle.</text>

<rect x="312" y="208" width="62" height="24" rx="5" fill="#1a0e00" stroke="#e06b00" stroke-width="1"/>
<text x="343" y="224" font-family="'SF Mono',monospace" font-size="11.5" fill="#e8842a" text-anchor="middle" font-weight="600">🦀 Rust</text>
<rect x="382" y="208" width="72" height="24" rx="5" fill="#0d1f3c" stroke="#58a6ff" stroke-width="1"/>
<text x="418" y="224" font-family="'SF Mono',monospace" font-size="11.5" fill="#58a6ff" text-anchor="middle" font-weight="600">Candle</text>
<rect x="462" y="208" width="100" height="24" rx="5" fill="#0f2a0f" stroke="#3fb950" stroke-width="1"/>
<text x="512" y="224" font-family="'SF Mono',monospace" font-size="11.5" fill="#3fb950" text-anchor="middle" font-weight="600">Open Source</text>
<rect x="570" y="208" width="66" height="24" rx="5" fill="#1a1a2e" stroke="#6e40c9" stroke-width="1"/>
<text x="603" y="224" font-family="'SF Mono',monospace" font-size="11.5" fill="#a371f7" text-anchor="middle" font-weight="600">v0.1.0</text>

<text x="312" y="268" font-family="'SF Mono','Fira Code',monospace" font-size="12" fill="#3d444d">github.com/Camidann/</text>
<text x="482" y="268" font-family="'SF Mono','Fira Code',monospace" font-size="12" fill="#58a6ff">pengui-redn</text>

<path d="M658 18 L672 18 L672 36" fill="none" stroke="#21262d" stroke-width="1.2" stroke-linecap="round"/>
<path d="M22 282 L8 282 L8 264" fill="none" stroke="#21262d" stroke-width="1.2" stroke-linecap="round"/>
</svg>
